# xmcd
#
# Track frame offsets: 
#        150
#        38760
#        65887
#        85520
#        87992
#        127227
#        130062
#        161987
#        199317
#        228474
#        249569
#        286595
#        314897
#
# Disc length: 4423 seconds
#
# Revision: 0
# Processed by: cddbd v1.5.1PL2 Copyright (c) Steve Scherf et al.
# Submitted via: ExactAudioCopy v0.95b4
#
DISCID=c111450d
DTITLE=Colin Dussault and his Blues Project Band - Watch This!
DYEAR=2005
DGENRE=Blues
TTITLE0=Blues For Robert Lockwood Jr. (with special guest Robert Lockw
TTITLE0=ood Jr. on guitar)
TTITLE1=At Last
TTITLE2=Sitting At A Bar (The Trailer Park Song)
TTITLE3=Disclaimer
TTITLE4=City Of New Orleans - 2005
TTITLE5=Barbara Bush Quote
TTITLE6=Let The Good Times Roll/Hey Bartender
TTITLE7=Guilty
TTITLE8=Loch Lomond
TTITLE9=Don't Get Around Much Anymore
TTITLE10=Rocky Top
TTITLE11=Georgia on my Mind (for Ray Charles)
TTITLE12=The Story of Loch Lomond (bonus track)
EXTD=
EXTT0=
EXTT1=
EXTT2=
EXTT3=
EXTT4=
EXTT5=
EXTT6=
EXTT7=
EXTT8=
EXTT9=
EXTT10=
EXTT11=
EXTT12=
PLAYORDER=
